<svg width="276" height="416" viewBox="0 0 276 416" fill="none" xmlns="http://www.w3.org/2000/svg">
<g clip-path="url(#clip0_340_7090)">
<path d="M218.149 334.638C217.938 334.876 217.727 335.121 217.523 335.366C214.674 338.671 212.1 342.204 209.827 345.929C209.643 346.215 209.466 346.507 209.303 346.792C203.922 355.792 200.259 365.713 198.5 376.05C198.106 378.388 197.809 380.74 197.609 383.106C197.466 384.928 197.38 386.752 197.351 388.578C197.242 396.246 197.922 404.777 192.979 410.637C191.658 412.179 190.045 413.445 188.234 414.362C186.869 415.068 185.427 415.613 183.937 415.986H168.524C167.749 415.871 166.974 415.749 166.198 415.626C166.178 415.626 166.158 415.619 166.137 415.619L165.981 415.674L165.049 415.986L165.009 416V415.986C165.01 415.959 165.007 415.932 165.002 415.905C165.003 415.855 165.001 415.805 164.995 415.755V415.749C164.988 415.613 164.981 415.483 164.981 415.347L164.961 414.987C164.961 414.987 164.954 414.98 164.961 414.98C164.954 414.776 164.941 414.573 164.934 414.362C164.22 396.62 165.96 378.286 174.337 362.665C177.209 357.313 180.908 352.447 185.296 348.247C185.322 348.22 185.349 348.195 185.378 348.172C194.087 339.866 205.346 334.434 217.231 334.618C217.537 334.618 217.843 334.625 218.149 334.638Z" fill="#F0F0F0"/>
<path d="M218.183 335.022C204.723 341.928 193.782 352.899 186.913 366.377C185.383 369.252 184.316 372.35 183.751 375.558C183.301 378.7 183.701 381.905 184.91 384.841C185.981 387.6 187.397 390.299 187.779 393.271C187.952 394.795 187.801 396.338 187.336 397.8C186.87 399.262 186.101 400.609 185.078 401.752C182.605 404.668 179.231 406.521 175.868 408.219C172.135 410.103 168.227 412.002 165.635 415.41C165.32 415.823 164.698 415.311 165.012 414.899C169.522 408.97 177.465 407.677 182.874 402.857C185.398 400.607 187.259 397.584 187.049 394.101C186.865 391.056 185.408 388.272 184.298 385.487C183.078 382.641 182.572 379.539 182.827 376.453C183.227 373.227 184.173 370.093 185.625 367.184C188.789 360.584 192.971 354.522 198.018 349.221C203.745 343.139 210.47 338.081 217.903 334.267C218.363 334.031 218.64 334.788 218.183 335.022H218.183Z" fill="white"/>
<path d="M188.869 361.907C186.764 360.448 185.246 358.288 184.587 355.813C183.927 353.338 184.169 350.709 185.269 348.396C185.493 347.929 186.23 348.256 186.005 348.723C184.977 350.875 184.752 353.324 185.371 355.627C185.99 357.931 187.412 359.937 189.38 361.284C189.807 361.577 189.294 362.198 188.869 361.907Z" fill="white"/>
<path d="M184.182 383.513C189.342 382.626 193.979 379.827 197.167 375.673C197.482 375.262 198.105 375.773 197.79 376.184C194.464 380.5 189.633 383.403 184.261 384.315C183.749 384.401 183.672 383.599 184.182 383.513V383.513Z" fill="white"/>
<path d="M204.168 344.12C204.865 344.854 205.733 345.404 206.695 345.72C207.657 346.035 208.682 346.107 209.679 345.929C210.189 345.836 210.265 346.638 209.758 346.731C208.656 346.923 207.524 346.842 206.46 346.495C205.397 346.148 204.434 345.547 203.657 344.743C203.577 344.673 203.527 344.576 203.517 344.47C203.506 344.365 203.536 344.26 203.601 344.176C203.669 344.094 203.767 344.042 203.873 344.031C203.979 344.021 204.085 344.053 204.168 344.12Z" fill="white"/>
<path d="M255.684 383.827C255.372 383.895 255.059 383.963 254.739 384.037H254.733C250.472 384.963 246.293 386.232 242.236 387.83C241.924 387.953 241.611 388.075 241.298 388.204H241.291C231.621 392.141 222.761 397.828 215.156 404.981C215.129 405.008 215.102 405.029 215.075 405.056C215.058 405.076 215.04 405.094 215.02 405.11L214.986 405.144C211.969 408.002 209.171 411.084 206.617 414.362C206.617 414.369 206.61 414.376 206.603 414.382C206.195 414.913 205.781 415.443 205.373 415.987H165.049L165.008 416V415.987H164.838C164.838 415.98 164.845 415.973 164.852 415.966C164.852 415.959 164.858 415.959 164.858 415.953C164.906 415.885 164.953 415.817 164.994 415.755V415.749C165.004 415.728 165.018 415.71 165.035 415.694C165.076 415.626 165.123 415.572 165.157 415.511C165.429 415.13 165.695 414.743 165.966 414.362C166.408 413.73 166.857 413.098 167.313 412.472C167.313 412.471 167.313 412.47 167.313 412.47C167.313 412.469 167.314 412.468 167.315 412.467C167.315 412.467 167.316 412.466 167.317 412.466C167.318 412.466 167.319 412.465 167.319 412.465V412.459C167.326 412.452 167.326 412.445 167.333 412.438L167.347 412.425C172.956 404.662 179.265 397.293 186.492 391.121C186.71 390.93 186.927 390.74 187.159 390.563C190.431 387.795 193.926 385.301 197.608 383.106C199.621 381.916 201.695 380.824 203.829 379.83C209.336 377.293 215.207 375.636 221.228 374.922H221.241C221.255 374.922 221.269 374.915 221.289 374.915C221.309 374.915 221.323 374.908 221.336 374.908C233.309 373.521 245.581 375.962 254.971 383.262C255.215 383.453 255.447 383.636 255.684 383.827Z" fill="#F0F0F0"/>
<path d="M164.839 415.987H165.009V416L165.049 415.987H175.839C172.623 415.436 169.414 415.008 166.198 415.626C166.124 415.64 166.056 415.653 165.981 415.674C165.655 415.735 165.328 415.817 165.002 415.905C164.981 415.912 164.954 415.919 164.934 415.925C164.904 415.933 164.876 415.947 164.852 415.966C164.835 415.969 164.819 415.976 164.805 415.987H164.839Z" fill="white"/>
<path d="M255.488 384.16C255.236 384.119 254.992 384.071 254.74 384.037H254.733C249.488 383.182 244.163 382.913 238.858 383.235C238.593 383.249 238.321 383.269 238.049 383.283C230.685 383.796 223.445 385.445 216.585 388.17C216.578 388.17 216.578 388.17 216.578 388.177C216.503 388.204 216.428 388.231 216.36 388.259C214.763 388.904 213.185 389.611 211.642 390.373C208.689 391.748 205.97 393.578 203.585 395.797C201.676 397.681 200.231 399.983 199.363 402.52C199.275 402.779 199.186 403.03 199.105 403.288C199.044 403.492 198.982 403.703 198.921 403.907C198.119 406.755 197.623 409.76 196.14 412.363C195.728 413.09 195.225 413.761 194.645 414.362C194.045 414.986 193.369 415.532 192.632 415.987H190.919C191.857 415.581 192.726 415.033 193.496 414.362C194.094 413.846 194.618 413.248 195.053 412.588C196.739 410.045 197.255 406.946 198.044 404.057C198.173 403.588 198.309 403.132 198.459 402.677C199.244 400.184 200.559 397.89 202.314 395.954C204.575 393.619 207.217 391.686 210.126 390.237C211.962 389.272 213.847 388.397 215.782 387.613C216.034 387.504 216.286 387.409 216.537 387.314C228.757 382.559 242.028 381.16 254.971 383.262C255.223 383.296 255.468 383.344 255.719 383.385C256.229 383.473 255.998 384.248 255.488 384.16Z" fill="white"/>
<path d="M215.895 387.978C215.093 385.546 215.181 382.907 216.145 380.534C217.109 378.161 218.885 376.208 221.156 375.024C221.616 374.785 222.008 375.49 221.547 375.728C219.43 376.827 217.776 378.647 216.883 380.858C215.99 383.07 215.917 385.528 216.678 387.788C216.842 388.28 216.059 388.466 215.895 387.978H215.895Z" fill="white"/>
<path d="M199.141 402.407C203.796 404.805 209.184 405.362 214.23 403.964C214.73 403.826 214.919 404.609 214.42 404.747C209.166 406.191 203.56 405.601 198.722 403.095C198.261 402.856 198.683 402.169 199.141 402.407Z" fill="white"/>
<path d="M238.821 382.985C238.935 383.991 239.297 384.953 239.875 385.784C240.453 386.615 241.228 387.29 242.131 387.747C242.595 387.98 242.172 388.667 241.712 388.435C240.716 387.925 239.861 387.179 239.221 386.262C238.58 385.345 238.174 384.285 238.038 383.175C238.016 383.071 238.035 382.963 238.09 382.873C238.145 382.783 238.232 382.717 238.334 382.689C238.438 382.664 238.547 382.681 238.638 382.737C238.729 382.792 238.795 382.882 238.821 382.985Z" fill="white"/>
<path d="M215.572 113.039C215.756 90.532 216.672 67.8072 218.319 44.8649C218.346 44.4095 218.38 43.9608 218.414 43.5054C219.285 31.5618 220.35 19.5752 221.61 7.54547V7.47749C221.609 5.4947 220.82 3.59346 219.418 2.19142C218.016 0.789373 216.114 0.00118321 214.131 0H13.5642C11.5878 0.00388259 9.69294 0.788275 8.29222 2.18239C6.8915 3.57651 6.09836 5.46745 6.08547 7.4435C4.34496 24.0095 2.98064 40.494 1.99253 56.8969C1.95174 57.4339 1.92455 57.9641 1.89736 58.5012C1.40784 66.6108 1.01804 74.7001 0.727951 82.769C0.707555 83.2449 0.687153 83.7207 0.680354 84.1965C-1.17586 133.704 0.630771 183.281 6.08547 232.523C6.09977 234.498 6.89358 236.387 8.29419 237.78C9.6948 239.173 11.5889 239.956 13.5642 239.959H214.131C216.114 239.958 218.016 239.17 219.418 237.768C220.82 236.366 221.609 234.465 221.61 232.482V232.407C220.624 223.659 219.758 214.853 219.013 205.991C218.904 204.693 218.797 203.395 218.693 202.096C218.176 195.713 217.725 189.305 217.34 182.872C217.259 181.574 217.184 180.275 217.116 178.977C216.388 166.102 215.912 153.128 215.688 140.053C215.661 138.755 215.64 137.463 215.62 136.158C215.538 129.775 215.514 123.367 215.545 116.934C215.545 115.636 215.552 114.338 215.572 113.039Z" fill="#F0F0F0"/>
<path d="M276 50.9829C275.999 49.0001 275.21 47.0988 273.808 45.6968C272.406 44.2947 270.504 43.5066 268.521 43.5054H67.9541C65.9777 43.5093 64.0828 44.2936 62.6821 45.6878C61.2814 47.0819 60.4883 48.9728 60.4754 50.9489C53.7037 115.507 52.5819 178.923 57.1167 239.959C57.6674 247.512 58.3111 255.025 59.0476 262.501C59.4419 266.505 59.8612 270.497 60.3054 274.478C60.3598 274.995 60.4142 275.512 60.4754 276.028C60.4897 278.003 61.2835 279.893 62.6841 281.285C64.0847 282.678 65.9788 283.461 67.9541 283.465H268.521C270.504 283.464 272.406 282.676 273.808 281.273C275.21 279.871 275.999 277.97 276 275.987V275.913C267.889 204.013 267.889 128.361 276 51.0508V50.9829Z" fill="white"/>
<path d="M276 50.9829C275.999 49.0001 275.21 47.0988 273.808 45.6968C272.406 44.2947 270.504 43.5066 268.521 43.5054H67.9541C65.9777 43.5093 64.0828 44.2936 62.6821 45.6878C61.2814 47.0819 60.4883 48.9728 60.4754 50.9489C53.7037 115.507 52.5819 178.923 57.1167 239.959C57.6674 247.512 58.3111 255.025 59.0476 262.501C59.4419 266.505 59.8612 270.497 60.3054 274.478C60.3598 274.995 60.4142 275.512 60.4754 276.028C60.4897 278.003 61.2835 279.893 62.6841 281.285C64.0847 282.678 65.9788 283.461 67.9541 283.465H268.521C270.504 283.464 272.406 282.676 273.808 281.273C275.21 279.871 275.999 277.97 276 275.987V275.913C267.889 204.013 267.889 128.361 276 51.0508V50.9829ZM274.64 276.028C274.628 277.643 273.978 279.188 272.832 280.326C271.686 281.465 270.136 282.104 268.521 282.105H67.9541C66.332 282.103 64.777 281.458 63.63 280.311C62.483 279.164 61.8376 277.609 61.8351 275.987V275.913C61.7875 275.478 61.7399 275.036 61.6924 274.601C61.2232 270.44 60.7858 266.269 60.3802 262.086C59.6663 254.751 59.034 247.376 58.4833 239.959C53.9484 178.957 55.0635 115.582 61.8351 51.0508V50.9829C61.8376 49.361 62.483 47.8063 63.63 46.6595C64.777 45.5127 66.332 44.8674 67.9541 44.8649H268.521C270.138 44.8654 271.689 45.5055 272.835 46.6454C273.982 47.7853 274.63 49.3324 274.64 50.9489C266.529 128.321 266.529 204.054 274.64 276.028Z" fill="#E4E4E4"/>
<path d="M81.7796 113.04C81.2636 113.041 80.7693 113.247 80.4049 113.612C80.0405 113.977 79.8359 114.472 79.8359 114.988C79.8359 115.504 80.0405 115.999 80.4049 116.364C80.7693 116.729 81.2636 116.935 81.7796 116.936H244.77C245.286 116.935 245.78 116.729 246.144 116.364C246.509 115.999 246.713 115.504 246.713 114.988C246.713 114.472 246.509 113.977 246.144 113.612C245.78 113.247 245.286 113.041 244.77 113.04H81.7796Z" fill="#E6E6E6"/>
<path d="M81.7792 124.731C81.2629 124.732 80.7682 124.938 80.4035 125.303C80.0388 125.669 79.834 126.164 79.834 126.68C79.834 127.196 80.0388 127.691 80.4035 128.056C80.7682 128.422 81.2629 128.627 81.7792 128.628H192.427C192.943 128.627 193.438 128.422 193.803 128.056C194.168 127.691 194.372 127.196 194.372 126.68C194.372 126.164 194.168 125.669 193.803 125.303C193.438 124.938 192.943 124.732 192.427 124.731H81.7792Z" fill="#E6E6E6"/>
<path d="M81.7792 136.159C81.2629 136.16 80.7682 136.365 80.4035 136.731C80.0388 137.096 79.834 137.591 79.834 138.107C79.834 138.623 80.0388 139.118 80.4035 139.484C80.7682 139.849 81.2629 140.055 81.7792 140.056H244.769C245.286 140.055 245.78 139.849 246.145 139.484C246.51 139.118 246.715 138.623 246.715 138.107C246.715 137.591 246.51 137.096 246.145 136.731C245.78 136.365 245.286 136.16 244.769 136.159H81.7792Z" fill="#E6E6E6"/>
<path d="M81.7796 147.851C81.2636 147.852 80.7693 148.058 80.4049 148.423C80.0405 148.788 79.8359 149.283 79.8359 149.799C79.8359 150.315 80.0405 150.81 80.4049 151.175C80.7693 151.54 81.2636 151.746 81.7796 151.747H192.428C192.944 151.746 193.438 151.54 193.802 151.175C194.167 150.81 194.371 150.315 194.371 149.799C194.371 149.283 194.167 148.788 193.802 148.423C193.438 148.058 192.944 147.852 192.428 147.851H81.7796Z" fill="#E6E6E6"/>
<path d="M81.7796 178.978C81.2636 178.979 80.7693 179.185 80.4049 179.55C80.0405 179.915 79.8359 180.41 79.8359 180.926C79.8359 181.442 80.0405 181.937 80.4049 182.302C80.7693 182.667 81.2636 182.873 81.7796 182.874H244.77C245.286 182.873 245.78 182.667 246.144 182.302C246.509 181.937 246.713 181.442 246.713 180.926C246.713 180.41 246.509 179.915 246.144 179.55C245.78 179.185 245.286 178.979 244.77 178.978H81.7796Z" fill="#E6E6E6"/>
<path d="M81.7792 190.669C81.2629 190.67 80.7682 190.876 80.4035 191.241C80.0388 191.606 79.834 192.101 79.834 192.617C79.834 193.134 80.0388 193.629 80.4035 193.994C80.7682 194.359 81.2629 194.565 81.7792 194.566H192.427C192.943 194.565 193.438 194.359 193.803 193.994C194.168 193.629 194.372 193.134 194.372 192.617C194.372 192.101 194.168 191.606 193.803 191.241C193.438 190.876 192.943 190.67 192.427 190.669H81.7792Z" fill="#E6E6E6"/>
<path d="M81.7792 202.097C81.2629 202.098 80.7682 202.303 80.4035 202.669C80.0388 203.034 79.834 203.529 79.834 204.045C79.834 204.561 80.0388 205.056 80.4035 205.422C80.7682 205.787 81.2629 205.993 81.7792 205.994H244.769C245.286 205.993 245.78 205.787 246.145 205.422C246.51 205.056 246.715 204.561 246.715 204.045C246.715 203.529 246.51 203.034 246.145 202.669C245.78 202.303 245.286 202.098 244.769 202.097H81.7792Z" fill="#E6E6E6"/>
<path d="M81.7796 213.789C81.2636 213.79 80.7693 213.996 80.4049 214.361C80.0405 214.726 79.8359 215.221 79.8359 215.737C79.8359 216.253 80.0405 216.748 80.4049 217.113C80.7693 217.478 81.2636 217.684 81.7796 217.685H192.428C192.944 217.684 193.438 217.478 193.802 217.113C194.167 216.748 194.371 216.253 194.371 215.737C194.371 215.221 194.167 214.726 193.802 214.361C193.438 213.996 192.944 213.79 192.428 213.789H81.7796Z" fill="#E6E6E6"/>
<path d="M114.029 88.8459H82.8978C82.4946 88.8455 82.108 88.6851 81.8229 88.4C81.5378 88.115 81.3774 87.7285 81.377 87.3254V82.3384C81.3774 81.9353 81.5378 81.5488 81.8229 81.2637C82.108 80.9787 82.4946 80.8183 82.8978 80.8179H114.029C114.432 80.8183 114.818 80.9787 115.103 81.2637C115.388 81.5488 115.549 81.9353 115.549 82.3384V87.3254C115.549 87.7285 115.388 88.115 115.103 88.4C114.818 88.6851 114.432 88.8455 114.029 88.8459Z" fill="#3F67F8"/>
<path d="M222.177 249.256L212.642 252.407C211.052 252.932 209.463 253.457 207.874 253.982C206.402 254.467 204.809 255.043 203.234 254.835C202.145 254.691 200.903 254.064 200.564 252.944C200.243 251.884 200.924 250.775 201.748 250.148C204.023 248.417 206.901 250.179 208.513 251.971C210.485 254.164 211.601 256.994 213.451 259.289C215.097 261.346 217.185 263.009 219.559 264.153C224.279 266.381 230.035 266.144 234.244 262.897C239.27 259.021 239.783 252.302 239.81 246.44C239.801 246.176 239.689 245.925 239.499 245.742C239.309 245.558 239.055 245.455 238.79 245.455C238.525 245.455 238.271 245.558 238.081 245.742C237.891 245.925 237.779 246.176 237.77 246.44C237.746 251.753 237.444 258.265 232.599 261.589C227.958 264.774 221.859 263.929 217.586 260.536C215.205 258.645 213.74 256.18 212.177 253.627C210.651 251.135 208.756 248.719 205.885 247.75C204.653 247.303 203.305 247.294 202.068 247.726C200.83 248.158 199.78 249.003 199.095 250.12C198.782 250.647 198.585 251.234 198.517 251.844C198.448 252.453 198.511 253.069 198.699 253.652C198.888 254.235 199.199 254.772 199.611 255.225C200.023 255.679 200.528 256.039 201.09 256.283C204.42 257.869 208.229 256.01 211.436 254.951L222.719 251.223C223.96 250.813 223.429 248.843 222.177 249.256L222.177 249.256Z" fill="#39B54A"/>
<path d="M193.92 399.145L187.234 401.348L175.555 376.611L185.423 373.36L193.92 399.145Z" fill="#9F616A"/>
<path d="M198.69 404.763L198.235 403.384L197.038 399.747L196.222 397.272L193.992 398.007L193.53 397.973L187.404 397.558L186.588 397.504L185.378 397.422L184.127 397.334L180.632 402.412H180.625C179.319 402.837 178.11 403.517 177.069 404.414C176.028 405.31 175.176 406.404 174.561 407.632C174.486 407.782 174.418 407.931 174.35 408.081C174.181 408.447 174.038 408.824 173.922 409.209C173.393 410.875 173.294 412.648 173.636 414.362C173.724 414.787 173.835 415.207 173.969 415.619L173.99 415.687L174.071 415.939L174.561 415.776L178.858 414.362L193.91 409.406L196.895 408.421L197.813 408.115H197.82L199.601 407.53L198.69 404.763Z" fill="#2F2E41"/>
<path d="M130.541 404.961L123.501 404.96L120.152 377.812L130.542 377.812L130.541 404.961Z" fill="#9F616A"/>
<path d="M119.275 285.948L116.155 291.345C116.155 291.345 112.725 292.282 113.846 303.458C114.638 311.35 114.894 346.684 116.887 369.64C117.716 379.194 118.846 386.603 120.44 388.998L121.421 389.876L131.665 390.855L131.923 390.765L135.685 364.202C136.36 359.434 136.259 354.587 135.386 349.851L134.706 342.374L144.138 304.512C144.138 304.512 153.743 328.778 159.862 351.891C161.335 357.454 166.93 360.993 169.051 365.767C169.762 367.366 170.46 368.916 171.141 370.403C175.628 380.196 177.877 387.326 179.578 387.919H180.938L189.097 385.2L190.702 381.165L178.219 344.413L168.871 285.073C151.059 275.498 134.352 274.432 119.275 285.948Z" fill="#2F2E41"/>
<path d="M170.297 205.991C169.682 204.637 168.959 203.334 168.135 202.096C166.252 199.161 163.634 196.769 160.541 195.156L157.862 194.564L153.062 193.504L150.533 190.669L146.386 186.026H132.108L130.198 190.669L128.593 194.564L127.906 196.223L115.682 202.334C115.675 202.334 115.675 202.334 115.668 202.341C115.832 203.564 115.992 204.781 116.151 205.991C116.498 208.622 116.824 211.221 117.13 213.788C117.287 215.093 117.436 216.392 117.579 217.683C118.034 221.735 118.426 225.716 118.755 229.627C119.047 233.121 119.281 236.565 119.455 239.959C119.881 247.668 119.912 255.394 119.551 263.106C119.455 264.921 121.257 266.987 121.114 268.761C120.876 271.657 118.639 274.227 118.245 276.993C118 278.693 118.109 280.501 117.681 282.105C117.562 282.575 117.384 283.027 117.151 283.451C117.151 283.458 117.144 283.458 117.144 283.465C112.249 292.207 116.09 288.033 115.634 289.998L115.852 290.052C115.954 290.079 116.267 290.161 116.77 290.276C119.646 290.963 131.503 279.835 139.464 279.835C144.244 279.835 156.897 287.693 161.132 288.264C164.484 288.713 167.476 289.121 169.257 287.55C169.774 287.092 170.169 286.513 170.406 285.864L170.427 285.803L170.42 285.742L170.25 283.465L170.148 282.105L168.693 262.596C167.88 261.589 167.367 260.374 167.211 259.089C167.054 257.804 167.262 256.502 167.809 255.329L168.108 254.697L167.007 239.959L166.803 237.206L166.728 236.275V236.268L166.198 229.151L167.476 225.263V225.256L169.964 217.683L171.242 213.788L172.045 211.341L172.099 211.178C171.671 209.394 171.067 207.657 170.297 205.991Z" fill="#FA3E3E"/>
<path d="M182.701 276.286L168.995 240.869L162.629 227.936L174.87 221.175L184.729 238.542L191.338 274.83C192.378 275.54 193.183 276.544 193.647 277.715C194.112 278.885 194.216 280.168 193.946 281.398C193.677 282.628 193.045 283.75 192.133 284.618C191.221 285.487 190.07 286.063 188.828 286.272C187.585 286.482 186.309 286.315 185.163 285.794C184.016 285.273 183.051 284.421 182.393 283.347C181.734 282.274 181.412 281.028 181.467 279.77C181.522 278.511 181.952 277.298 182.701 276.286H182.701Z" fill="#9F616A"/>
<path d="M182.978 227.493L179.47 225.222L175.438 217.684L173.357 213.788L172.045 211.341L171.488 210.294L165.185 205.991L160.929 203.082L157.462 205.991L155.81 207.378L157.428 213.788L158.407 217.684L160.542 226.133L166.803 237.207L168.36 239.96L169.251 241.544L169.258 241.557L169.38 241.768L185.201 241.108L185.697 241.088L185.725 239.96L185.738 239.552C185.745 239.348 185.745 239.144 185.745 238.94C185.743 234.959 184.794 231.035 182.978 227.493Z" fill="#FA3E3E"/>
<path d="M63.2326 262.201L91.2718 236.583L101.017 225.961L111.759 234.914L99.1475 250.4L67.7232 269.72C67.4387 270.947 66.7939 272.06 65.8715 272.918C64.9491 273.776 63.7913 274.338 62.5468 274.533C61.3024 274.727 60.0281 274.546 58.8878 274.011C57.7474 273.476 56.793 272.613 56.1472 271.531C55.5014 270.45 55.1937 269.2 55.2636 267.943C55.3336 266.686 55.7779 265.478 56.5396 264.475C57.3013 263.472 58.3455 262.719 59.5382 262.314C60.7308 261.909 62.0174 261.87 63.2326 262.201H63.2326Z" fill="#9F616A"/>
<path d="M121.114 217.683L121.06 213.788L120.958 205.991L120.917 202.966L120.802 202.885C120.168 202.469 119.451 202.2 118.701 202.096C118.041 201.987 117.368 201.987 116.709 202.096C116.361 202.15 116.018 202.229 115.682 202.334C115.675 202.334 115.675 202.334 115.668 202.341C113.653 203.064 111.874 204.324 110.522 205.984L110.515 205.991C108.476 208.416 106.669 211.026 105.117 213.788C104.348 215.093 103.614 216.412 102.927 217.683C100.33 222.516 98.4605 226.704 98.4265 226.779L90.6621 236.86L90.7709 237.043L92.4774 239.959L98.7324 250.652L99.725 252.352L102.261 250.999C105.217 249.422 107.548 246.885 108.87 243.807L109.774 240.354L110.107 239.959L118.755 229.627L121.23 226.663L121.114 217.683Z" fill="#FA3E3E"/>
<path d="M150.748 172.723C151.906 165.59 147.06 158.868 139.925 157.71C132.79 156.552 126.067 161.397 124.909 168.531C123.751 175.665 128.597 182.387 135.732 183.544C142.867 184.702 149.59 179.857 150.748 172.723Z" fill="#9F616A"/>
<path d="M125.176 162.048C124.595 160.013 123.431 158.268 124.013 158.268C124.595 158.268 124.886 156.814 124.886 156.814C124.886 156.814 125.467 156.523 125.758 156.814C126.049 157.105 126.34 154.778 126.34 154.778C126.34 154.778 126.631 153.906 126.922 154.488C127.212 155.069 127.212 154.778 127.503 153.906C127.794 153.034 129.248 152.452 129.248 152.452C129.248 152.452 134.775 152.743 135.647 151.58C136.52 150.416 146.409 151.289 148.445 152.743C150.481 154.197 158.502 156.796 153.743 164.953C156.462 169.712 152.402 178.199 151.353 179.206C149.694 180.798 148.546 181.372 140.696 182.934C139.16 183.239 135.386 170.392 135.386 170.392C135.386 170.392 125.758 164.084 125.176 162.048Z" fill="#2F2E41"/>
<path d="M130.966 403.9L130.544 403.73L122.97 400.644L121.808 400.175L116.899 403.9H116.892C114.119 403.903 111.46 405.007 109.499 406.968C107.539 408.93 106.437 411.589 106.436 414.362V414.702H133.312V403.9H130.966Z" fill="#2F2E41"/>
<path d="M209.963 415.171C209.963 415.277 209.943 415.383 209.902 415.482C209.862 415.581 209.802 415.67 209.727 415.746C209.652 415.822 209.563 415.882 209.464 415.923C209.366 415.965 209.26 415.986 209.154 415.986H70.9326C70.7171 415.986 70.5104 415.901 70.3581 415.748C70.2057 415.596 70.1201 415.39 70.1201 415.174C70.1201 414.959 70.2057 414.752 70.3581 414.6C70.5104 414.447 70.7171 414.362 70.9326 414.362H209.154C209.368 414.362 209.574 414.448 209.725 414.599C209.877 414.751 209.962 414.956 209.963 415.171Z" fill="#CCCCCC"/>
<path d="M67.2611 0C66.1914 19.0112 59.202 37.2119 47.2714 52.0537C35.3408 66.8955 19.0665 77.6352 0.727285 82.769C0.706888 83.2449 0.686486 83.7207 0.679688 84.1966C19.3988 79.0479 36.0276 68.1505 48.2183 53.0431C60.409 37.9357 67.5458 19.3815 68.6209 0H67.2611Z" fill="white"/>
<path d="M46.4359 0C43.2764 12.0025 37.7066 23.2366 30.0659 33.0182C22.4251 42.7998 12.8732 50.9242 1.99166 56.8969C1.95086 57.4339 1.92368 57.9641 1.89648 58.5012C13.1738 52.4422 23.0767 44.1178 30.9835 34.0506C38.8903 23.9833 44.6303 12.3906 47.8433 0H46.4359Z" fill="white"/>
</g>
<defs>
<clipPath id="clip0_340_7090">
<rect width="276" height="416" fill="white"/>
</clipPath>
</defs>
</svg>
