<svg width="85" height="47" viewBox="0 0 85 47" fill="none" xmlns="http://www.w3.org/2000/svg">
<path d="M72.0708 15.4036L71.028 15.3628C70.9717 15.6747 70.9362 16.0024 70.9222 16.3403C70.9108 16.6386 70.9176 16.9289 70.9395 17.209L71.9686 17.2487C71.9158 16.9811 71.8917 16.6874 71.9044 16.3789C71.9181 16.0262 71.9777 15.6951 72.0708 15.4036Z" fill="#6930C3"/>
<path d="M65.7998 16.3835L65.0312 17.081C65.2149 17.3418 65.4214 17.5992 65.653 17.8487C65.8562 18.0687 66.0685 18.2694 66.2841 18.4532L67.0423 17.7648C66.814 17.6106 66.588 17.4189 66.3769 17.1921C66.1349 16.9313 65.9412 16.6546 65.7998 16.3835Z" fill="#39B54A"/>
<path d="M73.5037 8.11635L72.4756 7.93945C72.3792 8.24109 72.2991 8.56088 72.2404 8.89429C72.19 9.18801 72.1577 9.47606 72.1431 9.75732L73.1572 9.93196C73.1409 9.65865 73.1559 9.36494 73.2087 9.06101C73.2696 8.71286 73.3728 8.39194 73.5037 8.11635Z" fill="#39B54A"/>
<path d="M72.7913 13.5994L72.0422 14.3172C72.2315 14.5724 72.4448 14.8253 72.6835 15.0691C72.8922 15.2823 73.1091 15.4785 73.3293 15.6554L74.0692 14.9478C73.8377 14.8003 73.6058 14.6143 73.3889 14.3932C73.141 14.1392 72.9391 13.867 72.7913 13.5994Z" fill="#FB3640"/>
<path d="M72.2922 24.595L72.9644 25.3855C73.2351 25.2154 73.5037 25.0215 73.7652 24.8037C73.9958 24.6121 74.2069 24.4113 74.4006 24.2061L73.7376 23.427C73.5724 23.6459 73.3705 23.8613 73.1318 24.0598C72.8589 24.2877 72.572 24.4669 72.2922 24.595Z" fill="#FB3640"/>
<path d="M76.8983 21.321L75.9473 21.7463C75.7776 21.4775 75.6193 21.1872 75.478 20.8787C75.3543 20.6077 75.251 20.3355 75.165 20.0679L76.1033 19.6494C76.1561 19.9171 76.2456 20.1983 76.3743 20.4784C76.5211 20.8005 76.7022 21.0863 76.8983 21.321Z" fill="#FB3640"/>
<path d="M69.4654 5.39922L69.425 4.36725C69.1062 4.3366 68.7746 4.32527 68.4314 4.33776C68.1311 4.34909 67.8396 4.37858 67.5596 4.42165L67.5986 5.44004C67.8637 5.36745 68.1585 5.32096 68.4695 5.30963C68.8261 5.29714 69.1648 5.33004 69.4654 5.39922Z" fill="#FB3640"/>
<path d="M68.9676 7.70361L68.386 8.55982C68.6257 8.77077 68.8885 8.97374 69.1718 9.16312C69.4219 9.32872 69.6753 9.475 69.9277 9.60315L70.5015 8.75828C70.2443 8.6619 69.9782 8.52808 69.7203 8.35569C69.4229 8.15839 69.1695 7.93498 68.9676 7.70361Z" fill="#FFA100"/>
<path d="M66.4459 11.2258L66.0557 10.2676C65.7447 10.3458 65.4282 10.4468 65.1103 10.5726C64.8315 10.6838 64.5677 10.8085 64.3186 10.9435L64.7032 11.8893C64.9279 11.7316 65.1894 11.5899 65.4786 11.4753C65.8089 11.3427 66.1381 11.261 66.4459 11.2258Z" fill="#FFA100"/>
<path d="M70.8685 13.7411L69.868 14.0326C69.7361 13.7434 69.6202 13.4349 69.5238 13.1095C69.4378 12.8248 69.3723 12.5413 69.3254 12.2646L70.3132 11.9766C70.3282 12.2487 70.3774 12.539 70.4656 12.8351C70.5666 13.1741 70.7066 13.4814 70.8685 13.7411Z" fill="#0876DD"/>
<path d="M79.0884 19.798L78.0883 20.0895C77.9561 19.8014 77.8405 19.4918 77.7441 19.1675C77.6581 18.8817 77.5926 18.5982 77.5454 18.3215L78.5332 18.0334C78.5482 18.3068 78.5977 18.5971 78.6859 18.8931C78.7869 19.2321 78.9269 19.5383 79.0884 19.798Z" fill="#0876DD"/>
<path d="M74.0028 4.52365L73.3293 3.73438C73.0596 3.90335 72.7913 4.09724 72.5298 4.31611C72.2992 4.50778 72.0881 4.7085 71.894 4.91375L72.5584 5.69286C72.7225 5.47399 72.9254 5.25853 73.1629 5.06006C73.4361 4.83211 73.7227 4.65181 74.0028 4.52365Z" fill="#0876DD"/>
<path d="M75.7662 15.5613L74.823 15.1179C74.6475 15.3833 74.4847 15.6702 74.3378 15.9764C74.2092 16.2451 74.1001 16.5139 74.0095 16.7804L74.94 17.2181C74.9973 16.9517 75.0927 16.6715 75.2256 16.3937C75.3783 16.0739 75.5643 15.7927 75.7662 15.5613Z" fill="#39B54A"/>
<path d="M70.5576 0.442276L69.6145 0C69.4389 0.264231 69.2761 0.551143 69.1292 0.857335C69.0009 1.1261 68.8918 1.396 68.8013 1.6625L69.7317 2.09911C69.789 1.83261 69.8841 1.55364 70.0173 1.27466C70.1697 0.954863 70.3557 0.673619 70.5576 0.442276Z" fill="#39B54A"/>
<path d="M72.3071 19.3604L71.3721 19.8163C71.473 20.1168 71.5994 20.4218 71.7495 20.7257C71.8827 20.9934 72.0283 21.2451 72.1833 21.481L73.1069 21.0308C72.9314 20.821 72.7695 20.5738 72.6318 20.2971C72.4735 19.9796 72.3657 19.6609 72.3071 19.3604Z" fill="#39B54A"/>
<path d="M76.6655 11.3506L76.2962 12.3168C75.9842 12.2465 75.6664 12.1512 75.3453 12.0321C75.0642 11.9267 74.7968 11.8076 74.5454 11.6772L74.9079 10.7246C75.1365 10.8766 75.4013 11.0138 75.6928 11.1227C76.0266 11.2474 76.3581 11.3222 76.6655 11.3506Z" fill="#6930C3"/>
<path d="M69.6994 25.3448C69.6674 25.3561 69.6352 25.3652 69.602 25.3743C67.4219 26.0354 65.3732 25.9844 63.6705 25.2291C62.0174 24.4954 60.7991 23.1289 60.2367 21.379C59.6746 19.6281 59.8732 17.8182 60.7965 16.2827C61.7628 14.6746 63.4445 13.4612 65.661 12.7694C65.9893 12.6673 66.3241 12.5778 66.6625 12.5018C66.7774 12.4757 66.8921 12.453 67.008 12.4303C67.2559 12.3815 67.5047 12.3396 67.7561 12.3044L67.547 13.0869L67.336 13.8762L67.0999 14.7653L69.7075 16.9336L68.8402 20.186L71.4489 22.3543L71.2528 23.0903L70.9981 24.044L70.7526 24.9649C70.6311 25.0148 70.5093 25.0635 70.3855 25.1089C70.241 25.1644 70.095 25.2155 69.9495 25.2642C69.8668 25.2926 69.7831 25.3198 69.6994 25.3448Z" fill="white"/>
<path d="M71.5352 24.9544L72.3288 24.4124L73.1515 23.8499L73.7859 23.4167L73.2352 20.0973L76.0402 18.182L75.4885 14.8638L76.2548 14.3387L76.9364 13.8737L77.6109 13.4133L77.6236 13.4201C79.0129 14.2956 80.2426 15.424 81.1411 16.6748C82.5764 18.6719 82.9766 20.6791 82.2663 22.3269C81.5573 23.9746 79.8147 25.0883 77.3598 25.4579C75.4976 25.7403 73.4293 25.5555 71.5352 24.9544Z" fill="white"/>
<path d="M2.60544 22.081V16.7449H0.375244V14.3756H2.60544V11.6354L5.46091 10.9967V14.3756H8.54566V16.7449H5.46091V21.5041C5.46091 22.0123 5.57207 22.3694 5.7944 22.5754C6.01674 22.7815 6.40578 22.8845 6.9616 22.8845C7.22562 22.8845 7.47574 22.8707 7.71195 22.8433C7.94816 22.8021 8.20524 22.7334 8.48314 22.6373V24.9448C8.17743 25.0409 7.80923 25.1164 7.37846 25.1714C6.9477 25.2401 6.57949 25.2744 6.27379 25.2744C5.0649 25.2744 4.14781 25.0066 3.52252 24.4709C2.91113 23.9215 2.60544 23.1249 2.60544 22.081ZM13.3985 25.295C12.2313 25.295 11.2794 24.9928 10.543 24.3885C9.80656 23.7704 9.43833 22.9738 9.43833 21.9986C9.43833 20.9822 9.83434 20.1855 10.6264 19.6086C11.4184 19.0318 12.5092 18.7433 13.8987 18.7433C14.3433 18.7433 14.788 18.7777 15.2327 18.8463C15.6773 18.915 16.115 19.018 16.5458 19.1554V18.3931C16.5458 17.775 16.3512 17.308 15.9622 16.9921C15.5731 16.6762 15.0034 16.5182 14.253 16.5182C13.7945 16.5182 13.2943 16.5938 12.7524 16.7449C12.2243 16.8822 11.6199 17.102 10.939 17.4042L9.89687 15.3233C10.7445 14.9387 11.5643 14.6502 12.3563 14.458C13.1623 14.2657 13.9543 14.1695 14.7324 14.1695C16.1914 14.1695 17.3239 14.5198 18.1298 15.2203C18.9496 15.907 19.3596 16.8822 19.3596 18.1459V25.1096H16.5458V24.3679C16.0872 24.6838 15.6009 24.9173 15.0868 25.0684C14.5865 25.2195 14.0238 25.295 13.3985 25.295ZM12.1687 21.9368C12.1687 22.3488 12.3494 22.6785 12.7107 22.9257C13.0719 23.1592 13.5513 23.2759 14.1488 23.2759C14.6213 23.2759 15.052 23.221 15.4411 23.1111C15.844 22.9875 16.2123 22.8158 16.5458 22.596V20.989C16.1984 20.8517 15.8302 20.7555 15.4411 20.7006C15.0659 20.6319 14.6699 20.5976 14.253 20.5976C13.6 20.5976 13.0858 20.7212 12.7107 20.9684C12.3494 21.2019 12.1687 21.5247 12.1687 21.9368ZM24.3762 10.0696V25.1096H21.5207V10.6877L24.3762 10.0696ZM36.3429 23.7704C35.676 24.3061 34.9882 24.6975 34.2795 24.9448C33.5848 25.192 32.8065 25.3156 31.9451 25.3156C31.1253 25.3156 30.3541 25.1714 29.6315 24.8829C28.9229 24.5945 28.3045 24.2031 27.7765 23.7086C27.2624 23.2141 26.8525 22.6304 26.5468 21.9574C26.255 21.2706 26.1091 20.5358 26.1091 19.7529C26.1091 18.9837 26.248 18.2626 26.5259 17.5896C26.8177 16.9028 27.2137 16.3122 27.714 15.8177C28.2142 15.3095 28.8047 14.9112 29.4856 14.6228C30.1804 14.3343 30.9168 14.1901 31.695 14.1901C32.4592 14.1901 33.168 14.3412 33.8209 14.6434C34.4879 14.9318 35.0575 15.3301 35.5301 15.8383C36.0163 16.3466 36.3915 16.9578 36.6556 17.672C36.9334 18.3725 37.0724 19.1348 37.0724 19.9589V20.7006H28.9854C29.1799 21.3736 29.5551 21.9162 30.1109 22.3282C30.6667 22.7403 31.3198 22.9463 32.0701 22.9463C32.5426 22.9463 32.9872 22.8707 33.4041 22.7197C33.8209 22.5686 34.1753 22.3557 34.4671 22.081L36.3429 23.7704ZM31.6324 16.5182C30.9794 16.5182 30.4166 16.7174 29.9442 17.1157C29.4717 17.5003 29.1452 18.0222 28.9646 18.6815H34.2795C34.0987 18.0497 33.7653 17.5346 33.279 17.1363C32.8065 16.7243 32.2577 16.5182 31.6324 16.5182ZM38.8219 25.1096V14.3756H41.6774V15.2203C42.0943 14.8769 42.5528 14.6159 43.0531 14.4374C43.5673 14.2588 44.1229 14.1695 44.7205 14.1695C45.9711 14.1695 46.9992 14.5678 47.8052 15.3645C48.6113 16.1611 49.0141 17.1844 49.0141 18.4343V25.1096H46.1587V18.8463C46.1587 18.1733 45.9502 17.6308 45.5334 17.2187C45.1305 16.8067 44.5886 16.6006 43.9076 16.6006C43.4351 16.6006 43.0045 16.6968 42.6154 16.8891C42.2402 17.0677 41.9275 17.3286 41.6774 17.672V25.1096H38.8219ZM52.25 22.081V16.7449H50.0198V14.3756H52.25V11.6354L55.1055 10.9967V14.3756H58.1902V16.7449H55.1055V21.5041C55.1055 22.0123 55.2165 22.3694 55.439 22.5754C55.6611 22.7815 56.0502 22.8845 56.6062 22.8845C56.87 22.8845 57.1201 22.8707 57.3565 22.8433C57.5926 22.8021 57.8496 22.7334 58.1277 22.6373V24.9448C57.8219 25.0409 57.4536 25.1164 57.023 25.1714C56.5922 25.2401 56.2238 25.2744 55.9183 25.2744C54.7095 25.2744 53.7924 25.0066 53.1671 24.4709C52.5555 23.9215 52.25 23.1249 52.25 22.081Z" fill="white"/>
<path d="M2.75391 43.7807V29.3588L5.60939 28.7407V33.8914C6.02624 33.5479 6.48479 33.2872 6.98502 33.1085C7.49915 32.9298 8.05494 32.8407 8.65245 32.8407C9.90302 32.8407 10.9313 33.2389 11.7372 34.0356C12.5431 34.8324 12.9461 35.8554 12.9461 37.1054V43.7807H10.0906V37.5175C10.0906 36.8444 9.88218 36.3019 9.46532 35.8899C9.06237 35.4778 8.52046 35.2718 7.83958 35.2718C7.36713 35.2718 6.93639 35.368 6.54732 35.5602C6.17214 35.7389 5.8595 35.9996 5.60939 36.3431V43.7807H2.75391ZM18.5481 43.9661C17.3809 43.9661 16.4291 43.6639 15.6926 43.0596C14.9562 42.4415 14.588 41.6448 14.588 40.6697C14.588 39.6534 14.984 38.8567 15.776 38.2798C16.568 37.7029 17.6588 37.4145 19.0483 37.4145C19.493 37.4145 19.9376 37.4489 20.3823 37.5175C20.8269 37.5861 21.2646 37.6891 21.6954 37.8265V37.0642C21.6954 36.4461 21.5009 35.979 21.1118 35.6632C20.7227 35.3474 20.153 35.1894 19.4027 35.1894C18.9441 35.1894 18.4439 35.265 17.902 35.416C17.374 35.5535 16.7695 35.773 16.0886 36.0753L15.0465 33.9944C15.8941 33.6097 16.7139 33.3213 17.506 33.1291C18.3119 32.9369 19.1039 32.8407 19.8821 32.8407C21.3411 32.8407 22.4735 33.1909 23.2794 33.8914C24.0993 34.5781 24.5092 35.5535 24.5092 36.817V43.7807H21.6954V43.039C21.2368 43.3548 20.7505 43.5885 20.2364 43.7395C19.7362 43.8905 19.1734 43.9661 18.5481 43.9661ZM17.3184 40.6079C17.3184 41.02 17.499 41.3496 17.8603 41.5968C18.2216 41.8302 18.7009 41.9471 19.2985 41.9471C19.7709 41.9471 20.2016 41.892 20.5907 41.7823C20.9937 41.6586 21.3619 41.4871 21.6954 41.2672V39.6602C21.348 39.5227 20.9798 39.4268 20.5907 39.3717C20.2155 39.3032 19.8195 39.2687 19.4027 39.2687C18.7496 39.2687 18.2355 39.3923 17.8603 39.6396C17.499 39.873 17.3184 40.1958 17.3184 40.6079ZM27.7431 40.7521V35.416H25.5129V33.0467H27.7431V30.3065L30.5986 29.6678V33.0467H33.6835V35.416H30.5986V40.1752C30.5986 40.6836 30.7097 41.0406 30.9321 41.2466C31.1544 41.4526 31.5434 41.5556 32.0993 41.5556C32.3633 41.5556 32.6133 41.5418 32.8498 41.5144C33.0859 41.4732 33.3428 41.4046 33.621 41.3084V43.6159C33.3151 43.7122 32.9468 43.7875 32.5161 43.8425C32.0854 43.9111 31.7171 43.9455 31.4114 43.9455C30.2026 43.9455 29.2855 43.6777 28.6602 43.142C28.0488 42.5925 27.7431 41.7961 27.7431 40.7521ZM40.3102 41.5144C40.7965 41.5144 41.2482 41.4182 41.665 41.226C42.0959 41.0338 42.5056 40.7315 42.8947 40.3195L44.6039 42.0707C44.048 42.6749 43.381 43.1488 42.6029 43.4923C41.8249 43.8219 41.0189 43.9867 40.1852 43.9867C39.3931 43.9867 38.6428 43.8425 37.9341 43.5541C37.2395 43.2657 36.635 42.8742 36.1208 42.3797C35.6206 41.8853 35.2246 41.3016 34.9328 40.6285C34.641 39.9419 34.4951 39.2069 34.4951 38.424C34.4951 37.6411 34.641 36.9132 34.9328 36.2401C35.2246 35.5535 35.6206 34.9627 36.1208 34.4683C36.635 33.96 37.2395 33.5618 37.9341 33.2733C38.6428 32.9849 39.3931 32.8407 40.1852 32.8407C41.0466 32.8407 41.8734 33.0122 42.6655 33.3557C43.4575 33.6854 44.1313 34.1525 44.6872 34.7567L42.9364 36.5904C42.5473 36.1645 42.1304 35.8419 41.6859 35.622C41.2413 35.4022 40.7619 35.2924 40.2477 35.2924C39.428 35.2924 38.733 35.5947 38.1634 36.1989C37.6075 36.8032 37.3297 37.5449 37.3297 38.424C37.3297 39.3032 37.6147 40.0378 38.1842 40.6285C38.7678 41.2192 39.4765 41.5144 40.3102 41.5144ZM46.0886 43.7807V29.3588L48.9441 28.7407V33.8914C49.3609 33.5479 49.8195 33.2872 50.3194 33.1085C50.8336 32.9298 51.3895 32.8407 51.9871 32.8407C53.2377 32.8407 54.2659 33.2389 55.0719 34.0356C55.8776 34.8324 56.2808 35.8554 56.2808 37.1054V43.7807H53.4253V37.5175C53.4253 36.8444 53.2169 36.3019 52.8 35.8899C52.3968 35.4778 51.8549 35.2718 51.1743 35.2718C50.7017 35.2718 50.2709 35.368 49.882 35.5602C49.5068 35.7389 49.1942 35.9996 48.9441 36.3431V43.7807H46.0886ZM68.1772 42.4415C67.5102 42.9772 66.8224 43.3687 66.1138 43.6159C65.4191 43.8631 64.6407 43.9867 63.7793 43.9867C62.9596 43.9867 62.1884 43.8425 61.4658 43.5541C60.7571 43.2657 60.1387 42.8742 59.6108 42.3797C59.0965 41.8853 58.6868 41.3016 58.381 40.6285C58.0892 39.9419 57.9433 39.2069 57.9433 38.424C57.9433 37.6549 58.0824 36.9339 58.3602 36.2607C58.652 35.5741 59.048 34.9834 59.5482 34.4889C60.0485 33.9806 60.6389 33.5824 61.3199 33.2939C62.0145 33.0055 62.7512 32.8613 63.5292 32.8613C64.2936 32.8613 65.0022 33.0122 65.6552 33.3145C66.3222 33.603 66.8918 34.0012 67.3643 34.5095C67.8506 35.0178 68.2257 35.6288 68.4898 36.3431C68.7676 37.0436 68.9067 37.8059 68.9067 38.63V39.3717H60.8197C61.0141 40.0449 61.3892 40.5873 61.9452 40.9994C62.5011 41.4114 63.1541 41.6174 63.9044 41.6174C64.3769 41.6174 64.8215 41.5418 65.2383 41.3908C65.6552 41.2398 66.0095 41.0267 66.3013 40.7521L68.1772 42.4415ZM63.4667 35.1894C62.8137 35.1894 62.251 35.3886 61.7784 35.7869C61.3059 36.1716 60.9796 36.6934 60.7988 37.3527H66.1138C65.933 36.7207 65.5995 36.2057 65.1133 35.8075C64.6407 35.3954 64.092 35.1894 63.4667 35.1894ZM78.8455 43.7807V42.8948C78.4146 43.2383 77.9353 43.499 77.4074 43.6777C76.8794 43.8425 76.3304 43.9249 75.7608 43.9249C74.9964 43.9249 74.2741 43.7807 73.5931 43.4923C72.9261 43.2038 72.3425 42.8124 71.8423 42.3179C71.3421 41.8235 70.9461 41.2398 70.6543 40.5667C70.3764 39.8936 70.2374 39.1725 70.2374 38.4034C70.2374 37.6343 70.3833 36.9132 70.6751 36.2401C70.9669 35.567 71.3629 34.9834 71.8631 34.4889C72.3634 33.9944 72.9538 33.6097 73.6348 33.3351C74.3294 33.0467 75.0661 32.9025 75.8441 32.9025C76.372 32.9025 76.8863 32.9781 77.3865 33.1291C77.9007 33.2666 78.373 33.4726 78.8038 33.7472V29.3588L81.6593 28.7407V43.7807H78.8455ZM73.0512 38.4034C73.0512 39.2687 73.357 40.0037 73.9683 40.6079C74.5796 41.2121 75.3299 41.5144 76.2193 41.5144C76.7472 41.5144 77.2266 41.4253 77.6575 41.2466C78.102 41.0679 78.4843 40.8139 78.8038 40.4843V36.3019C78.498 35.9861 78.116 35.7389 77.6575 35.5602C77.2129 35.3816 76.7335 35.2924 76.2193 35.2924C75.3162 35.2924 74.5587 35.5947 73.9474 36.1989C73.3498 36.7896 73.0512 37.5242 73.0512 38.4034Z" fill="white"/>
</svg>
