<svg width="469" height="368" viewBox="0 0 469 368" fill="none" xmlns="http://www.w3.org/2000/svg">
<g clip-path="url(#clip0_340_8219)">
<path d="M141.962 141.896C139.452 138.649 135.905 135.644 135.68 131.637C135.475 127.962 138.219 124.313 137.062 120.797C136.172 118.094 133.236 116.463 130.367 115.599C124.874 113.969 118.996 114.195 113.645 116.242L113.935 116.037C110.67 114.876 106.852 116.075 104.283 118.296C101.713 120.517 100.186 123.596 99.0009 126.681C97.8158 129.766 96.8977 132.964 95.2513 135.856C93.6046 138.749 91.0837 141.379 87.7576 142.379C88.8711 144.596 92.3519 145.357 94.3934 143.829C94.915 143.406 95.3838 142.922 95.7898 142.388C97.1513 140.734 98.5129 139.081 99.8746 137.428C101.276 139.916 99.1826 143.35 100.905 145.653C101.793 146.841 103.415 147.292 104.921 147.616C116.694 150.124 128.906 149.672 140.461 146.3C141.389 146.026 142.414 145.65 142.799 144.811C143.244 143.842 142.622 142.75 141.962 141.896Z" fill="#2F2E41"/>
<path d="M175.344 154.568C175.27 154.89 175.222 155.218 175.2 155.549L149.469 170.371L143.214 166.776L136.546 175.492L146.999 182.931C147.844 183.532 148.861 183.843 149.897 183.818C150.934 183.792 151.935 183.432 152.749 182.791L179.283 161.889C180.48 162.332 181.784 162.4 183.021 162.085C184.258 161.769 185.37 161.085 186.208 160.123C187.047 159.162 187.572 157.968 187.714 156.701C187.856 155.434 187.609 154.154 187.005 153.03C186.4 151.907 185.468 150.994 184.331 150.413C183.195 149.832 181.908 149.61 180.642 149.777C179.376 149.944 178.191 150.492 177.245 151.347C176.298 152.203 175.635 153.326 175.344 154.568H175.344Z" fill="#FFB7B7"/>
<path d="M148.608 171.073L140.291 181.835C140.055 182.142 139.755 182.393 139.412 182.573C139.069 182.753 138.691 182.857 138.305 182.879C137.918 182.9 137.531 182.837 137.171 182.696C136.81 182.554 136.485 182.337 136.216 182.058L126.801 172.296C125.238 171.079 124.223 169.292 123.978 167.328C123.733 165.364 124.278 163.383 125.493 161.82C126.709 160.257 128.495 159.239 130.462 158.989C132.428 158.739 134.413 159.278 135.982 160.487L147.79 167.08C148.128 167.269 148.421 167.528 148.65 167.841C148.878 168.153 149.037 168.511 149.115 168.89C149.192 169.268 149.187 169.66 149.1 170.036C149.012 170.413 148.844 170.767 148.608 171.073Z" fill="#3F67F8"/>
<path d="M137.162 358.594L144.506 358.594L147.999 330.31L137.161 330.311L137.162 358.594Z" fill="#FFB7B7"/>
<path d="M135.289 356.2L149.751 356.199H149.752C152.196 356.2 154.54 357.169 156.269 358.895C157.997 360.621 158.968 362.961 158.968 365.402V365.701L135.289 365.702L135.289 356.2Z" fill="#2F2E41"/>
<path d="M86.8449 358.594L94.1889 358.594L97.6823 330.31L86.8438 330.311L86.8449 358.594Z" fill="#FFB7B7"/>
<path d="M84.9727 356.2L99.4351 356.199H99.4357C101.88 356.2 104.224 357.169 105.953 358.895C107.681 360.621 108.652 362.961 108.652 365.402V365.701L84.9731 365.702L84.9727 356.2Z" fill="#2F2E41"/>
<path d="M132.752 137.897C133.517 130.94 128.489 124.681 121.521 123.918C114.554 123.154 108.285 128.175 107.52 135.132C106.756 142.089 111.784 148.348 118.751 149.112C125.719 149.875 131.987 144.855 132.752 137.897Z" fill="#FFB7B7"/>
<path d="M127.562 155.512L135.039 159.211C135.039 159.211 143.394 173.707 138.601 187.464C136.275 194.143 142.827 215.433 142.827 215.433C142.827 215.433 152.978 311.87 153.01 341.634C140.398 343.57 128.418 345.962 127.819 339.981C127.22 334 120.663 263.282 120.663 263.282C120.663 263.282 111.646 341.776 104.458 342.972C97.27 344.168 82.8938 342.374 82.8938 342.374C82.8938 342.374 94.307 227.395 102.094 220.218L103.292 214.237L103.26 160.549L112.232 156.274L127.562 155.512Z" fill="#2F2E41"/>
<path d="M100.815 237.017C101.643 236.57 102.362 235.947 102.922 235.192C103.482 234.438 103.87 233.57 104.058 232.649C104.246 231.729 104.23 230.779 104.01 229.865C103.79 228.952 103.373 228.098 102.787 227.363L111.482 169.489L100.122 168.944L93.3432 226.579C92.1722 227.644 91.4331 229.1 91.2659 230.673C91.0987 232.246 91.5151 233.825 92.4361 235.112C93.3571 236.398 94.7188 237.303 96.2632 237.654C97.8075 238.005 99.4272 237.778 100.815 237.017Z" fill="#FFB7B7"/>
<path d="M111.235 183.99L97.6485 183.133C97.2619 183.109 96.8851 183.002 96.5438 182.819C96.2025 182.636 95.9046 182.382 95.6706 182.074C95.4365 181.765 95.2717 181.411 95.1874 181.033C95.1031 180.656 95.1013 180.264 95.1821 179.886L98.0131 166.632C98.1489 164.657 99.0634 162.817 100.556 161.515C102.049 160.213 103.997 159.555 105.975 159.685C107.953 159.816 109.798 160.724 111.106 162.211C112.414 163.698 113.078 165.642 112.953 167.617L114.091 181.078C114.124 181.463 114.073 181.851 113.941 182.215C113.81 182.579 113.602 182.911 113.331 183.187C113.06 183.463 112.733 183.678 112.371 183.817C112.009 183.955 111.622 184.014 111.235 183.99H111.235Z" fill="#3F67F8"/>
<path d="M133.438 128.277C132.943 126.037 131.337 124.181 129.486 122.821C126.436 120.581 122.695 119.479 118.914 119.709C115.134 119.938 111.554 121.484 108.798 124.077C107.258 125.436 106.148 127.213 105.603 129.191C105.343 130.18 105.329 131.217 105.563 132.212C105.796 133.207 106.27 134.131 106.942 134.902L107.195 135.06C106.966 134.086 107.723 133.113 108.628 132.684C109.569 132.339 110.552 132.119 111.55 132.03C113.061 131.745 114.493 131.139 115.749 130.254C117.005 129.369 118.057 128.225 118.832 126.899C119.407 128.531 120.324 130.021 121.524 131.268C122.723 132.516 124.176 133.494 125.785 134.134C127.463 134.789 132.07 135.69 133.667 134.858C135.704 133.797 133.932 130.517 133.438 128.277Z" fill="#2F2E41"/>
<path d="M40.0522 341.123C42.2482 341.894 44.606 342.087 46.8984 341.684C49.1909 341.28 51.3407 340.294 53.1407 338.821C57.725 334.979 59.1626 328.651 60.3318 322.79L63.7909 305.454L56.549 310.433C51.3406 314.014 46.0153 317.71 42.4095 322.896C38.8036 328.082 37.2305 335.163 40.1268 340.775" fill="#E6E6E6"/>
<path d="M41.1711 363.318C40.2596 356.687 39.3218 349.97 39.9627 343.268C40.5306 337.316 42.3493 331.504 46.0519 326.736C48.0172 324.211 50.4086 322.047 53.1186 320.342C53.8251 319.897 54.4755 321.015 53.772 321.458C49.0829 324.417 45.4559 328.786 43.414 333.936C41.159 339.663 40.7969 345.906 41.1854 351.989C41.4201 355.668 41.919 359.323 42.4201 362.973C42.4597 363.138 42.435 363.312 42.351 363.46C42.267 363.607 42.1301 363.718 41.9678 363.768C41.8023 363.813 41.6258 363.79 41.4768 363.706C41.3277 363.621 41.218 363.482 41.1716 363.317L41.1711 363.318Z" fill="#F2F2F2"/>
<path d="M47.7327 352.678C48.6743 354.108 49.9689 355.271 51.4916 356.056C53.0144 356.841 54.7139 357.221 56.4265 357.16C60.8286 356.951 64.4971 353.885 67.7991 350.972L77.568 342.36L71.1028 342.051C66.4534 341.829 61.684 341.62 57.2555 343.054C52.8271 344.487 48.743 347.931 47.9334 352.508" fill="#E6E6E6"/>
<path d="M38.5943 367.129C42.9826 359.376 48.0723 350.76 57.1675 348.006C59.6962 347.243 62.3476 346.969 64.9791 347.2C65.8086 347.272 65.6015 348.548 64.7737 348.477C60.3626 348.112 55.9599 349.275 52.307 351.771C48.7918 354.16 46.0547 357.481 43.7384 361.003C42.3193 363.161 41.0483 365.41 39.7773 367.656C39.3712 368.374 38.1834 367.856 38.5943 367.129Z" fill="#F2F2F2"/>
<path d="M258.223 248.908C249.988 237.904 234.916 235.249 227.427 240.837C219.938 246.425 218.217 261.609 226.452 272.613C234.074 282.798 247.884 285.576 255.49 281.76C255.466 281.879 255.464 282.002 255.486 282.121L255.915 284.238C255.947 284.4 256.021 284.55 256.128 284.675C256.235 284.8 256.373 284.896 256.527 284.953C256.682 285.01 256.849 285.026 257.012 285.001C257.175 284.976 257.328 284.909 257.458 284.808L261.09 281.975C261.22 281.874 261.321 281.741 261.385 281.589C261.45 281.438 261.474 281.272 261.456 281.108C261.438 280.945 261.378 280.788 261.282 280.654C261.187 280.52 261.059 280.412 260.91 280.342L258.956 279.414C258.888 279.383 258.815 279.361 258.741 279.347C264.604 273.158 265.861 259.115 258.223 248.908Z" fill="#39B54A"/>
<path d="M317.12 219.642C321.148 220.281 324.777 222.44 327.257 225.673C329.738 228.906 330.88 232.966 330.449 237.016C330.361 237.944 331.812 237.938 331.9 237.016C332.315 232.651 331.063 228.291 328.393 224.81C325.723 221.328 321.834 218.984 317.506 218.245C316.593 218.09 316.2 219.486 317.12 219.642Z" fill="white"/>
<path d="M348.554 33.5937C355.753 21.8886 352.658 6.92302 344.691 2.03756C336.724 -2.8479 321.957 1.16403 314.758 12.8691C308.094 23.7035 310.609 37.5434 316.97 43.1919C316.85 43.2131 316.735 43.257 316.631 43.3213L314.82 44.5011C314.682 44.591 314.569 44.7147 314.492 44.8604C314.415 45.0061 314.377 45.169 314.381 45.3336C314.385 45.4982 314.431 45.659 314.515 45.8008C314.599 45.9426 314.717 46.0607 314.86 46.1438L318.837 48.4671C318.98 48.5503 319.141 48.5957 319.306 48.5991C319.471 48.6025 319.634 48.5638 319.779 48.4866C319.925 48.4095 320.048 48.2964 320.138 48.1582C320.227 48.0199 320.28 47.8611 320.291 47.6969L320.433 45.5417C320.436 45.4665 320.431 45.3912 320.416 45.3173C328.342 48.4717 341.875 44.4517 348.554 33.5937Z" fill="#FA3E3E"/>
<path d="M345.769 15.3455C346.662 19.3192 345.993 23.4836 343.9 26.9791C341.807 30.4747 338.45 33.0345 334.522 34.1303C333.626 34.3908 334.168 35.7355 335.058 35.4767C339.274 34.2498 342.869 31.4769 345.123 27.714C347.377 23.9511 348.123 19.4765 347.211 15.1874C347.018 14.2827 345.574 14.434 345.769 15.3455Z" fill="white"/>
<path d="M220.967 89.131C220.365 75.408 209.406 64.7413 200.065 65.1498C190.725 65.5583 180.742 77.141 181.344 90.864C181.901 103.566 191.748 113.625 200.186 114.747C200.099 114.831 200.028 114.932 199.979 115.043L199.14 117.034C199.076 117.185 199.052 117.351 199.07 117.515C199.088 117.678 199.148 117.834 199.243 117.969C199.339 118.103 199.467 118.21 199.616 118.281C199.765 118.351 199.93 118.383 200.094 118.372L204.693 118.072C204.857 118.061 205.016 118.009 205.155 117.92C205.293 117.83 205.407 117.707 205.484 117.562C205.561 117.416 205.6 117.253 205.597 117.089C205.593 116.924 205.548 116.763 205.465 116.621L204.373 114.756C204.334 114.692 204.287 114.633 204.234 114.58C212.569 112.76 221.525 101.861 220.967 89.131Z" fill="#6930C3"/>
<path d="M208.422 75.5724C211.391 78.3647 213.173 82.1886 213.4 86.2548C213.627 90.321 212.282 94.3191 209.643 97.4239C209.047 98.1408 210.25 98.9518 210.842 98.2395C213.646 94.8654 215.069 90.5574 214.826 86.1796C214.582 81.8017 212.69 77.6777 209.529 74.6345C208.861 73.993 207.75 74.9261 208.422 75.5724Z" fill="white"/>
<path d="M239.656 144.725C240.288 148.277 240.07 151.927 239.021 155.377C237.971 158.827 236.12 161.978 233.619 164.573C232.908 165.302 232.154 166.212 231.033 166.1C230.607 166.069 230.203 165.895 229.888 165.605C229.573 165.315 229.366 164.927 229.299 164.504C229.169 163.401 230.047 162.454 231.019 162.077C232.12 161.65 233.21 162.237 233.874 163.127C235.498 165.302 234.497 168.138 233.704 170.425C231.896 175.635 230.475 181.227 231.473 186.765C232.396 191.888 235.691 196.82 240.746 198.564C241.63 198.869 242.04 197.477 241.16 197.174C236.146 195.444 233.219 190.193 232.697 185.135C232.446 182.106 232.715 179.057 233.493 176.119C233.862 174.604 234.317 173.111 234.819 171.635C235.37 170.212 235.794 168.742 236.086 167.244C236.461 164.773 235.665 161.815 233.16 160.763C230.824 159.78 227.804 161.714 227.844 164.299C227.869 164.862 228.033 165.41 228.321 165.894C228.61 166.378 229.014 166.783 229.497 167.072C229.98 167.362 230.527 167.526 231.09 167.552C231.652 167.577 232.212 167.463 232.719 167.218C233.825 166.69 234.752 165.533 235.539 164.621C237.913 161.877 239.642 158.634 240.598 155.132C241.554 151.629 241.714 147.956 241.064 144.382C240.888 143.464 239.481 143.81 239.656 144.725Z" fill="#CCCCCC"/>
<path d="M317.948 119.351C321.921 117.506 326.798 116.901 330.841 118.616C334.883 120.33 337.639 124.725 336.331 128.615C335.739 130.379 334.389 132.113 334.915 133.894C335.32 135.265 336.732 136.17 338.118 136.814C339.505 137.457 341.022 137.998 342.024 139.084C343.027 140.169 343.236 142.038 341.984 142.88C341.571 143.157 341.055 143.288 340.655 143.581C340.314 143.857 340.068 144.233 339.951 144.656C339.834 145.079 339.852 145.528 340.003 145.94C340.337 146.77 340.888 147.494 341.599 148.037C343.021 149.261 344.901 150.663 344.459 152.401C344.295 152.866 344.021 153.284 343.661 153.62C343.301 153.957 342.865 154.202 342.39 154.334C341.403 154.618 340.379 154.753 339.352 154.734L297.389 156.054C296.004 156.158 294.611 156.08 293.246 155.823C292.582 155.702 291.951 155.446 291.391 155.07C290.831 154.695 290.355 154.208 289.992 153.64C289.189 152.155 289.716 150.326 290.709 148.939C291.701 147.552 293.105 146.458 294.266 145.185C295.426 143.911 296.376 142.321 296.171 140.676C296.008 139.358 295.137 138.219 294.513 137.022C293.888 135.825 293.525 134.329 294.334 133.228C295.474 131.676 298.212 131.816 299.508 130.37C300.486 129.279 300.297 127.708 300.395 126.3C300.629 122.915 302.976 119.718 306.317 118.234C308.016 117.506 309.864 117.191 311.709 117.317C313.553 117.442 315.342 118.004 316.926 118.955L317.948 119.351Z" fill="#2F2E41"/>
<path d="M369.053 286.87V293.723L342.583 296.983L342.584 286.869L369.053 286.87Z" fill="#9E616A"/>
<path d="M375.704 285.123L375.703 307.217H375.423C373.139 307.217 370.949 306.311 369.334 304.698C367.719 303.086 366.811 300.898 366.811 298.618V298.617L366.812 285.123L375.704 285.123Z" fill="#2F2E41"/>
<path d="M336.33 298.526L334.645 305.169L308.184 301.841L310.671 292.037L336.33 298.526Z" fill="#9E616A"/>
<path d="M343.208 298.463L337.776 319.881L337.505 319.812C335.29 319.252 333.39 317.837 332.22 315.878C331.051 313.919 330.709 311.576 331.27 309.365L331.27 309.364L334.588 296.283L343.208 298.463Z" fill="#2F2E41"/>
<path d="M329.572 221.683L331.001 223.17C331.001 223.17 340.328 230.472 333.428 249.707L322.141 282.175L359.973 283.648L359.163 298.484C359.163 298.484 304.297 301.531 304.777 292.503C305.257 283.474 307.281 250.045 307.281 250.045L295.882 240.904L298.631 225.445L329.572 221.683Z" fill="#2F2E41"/>
<path d="M300.266 236.417L295.883 240.904L281.188 281.239C281.188 281.239 278.949 291.299 283.987 293.535C289.025 295.77 321.44 308.276 321.44 308.276L324.75 296.381L299.773 281.412L311.415 266.148L313.167 242.089L300.266 236.417Z" fill="#2F2E41"/>
<path d="M300.499 165.264L337.798 157.817L338.609 178.25L328.947 198.812L331.001 223.17L297.572 229.002L298.619 196.974C298.619 196.974 289.642 184.328 294.93 171.582L300.499 165.264Z" fill="#979797"/>
<path d="M383.671 116.791C383.858 117.649 383.855 118.537 383.661 119.393C383.467 120.25 383.087 121.053 382.548 121.747C382.01 122.44 381.325 123.008 380.543 123.409C379.761 123.81 378.901 124.035 378.022 124.068L342.254 165.482L333.938 155.405L371.712 117.865C371.754 116.388 372.338 114.977 373.352 113.901C374.366 112.824 375.74 112.157 377.214 112.024C378.688 111.892 380.16 112.304 381.35 113.183C382.54 114.061 383.366 115.345 383.671 116.791Z" fill="#9E616A"/>
<path d="M350.042 160.963C350.05 161.35 349.975 161.734 349.821 162.089C349.667 162.444 349.439 162.762 349.151 163.021L339.093 172.061C337.831 173.587 336.014 174.551 334.041 174.741C332.068 174.931 330.1 174.333 328.568 173.077C327.036 171.82 326.066 170.009 325.869 168.04C325.673 166.07 326.267 164.103 327.52 162.57L334.541 150.967C334.741 150.636 335.011 150.352 335.331 150.134C335.651 149.917 336.015 149.77 336.397 149.706C336.779 149.641 337.17 149.659 337.544 149.759C337.919 149.859 338.267 150.038 338.566 150.284L349.064 158.945C349.363 159.191 349.605 159.499 349.773 159.847C349.942 160.196 350.034 160.576 350.042 160.963Z" fill="#E4E4E4"/>
<path d="M242.012 214.117C241.956 213.241 242.093 212.364 242.414 211.546C242.734 210.729 243.23 209.992 243.867 209.387C244.504 208.781 245.266 208.323 246.099 208.043C246.933 207.764 247.817 207.67 248.691 207.769L290.278 172.183L296.985 183.392L253.997 214.848C253.734 216.302 252.945 217.609 251.781 218.521C250.616 219.434 249.157 219.888 247.68 219.798C246.203 219.708 244.81 219.08 243.765 218.033C242.72 216.986 242.097 215.593 242.012 214.117V214.117Z" fill="#9E616A"/>
<path d="M281.899 175.484C281.949 175.1 282.081 174.732 282.287 174.404C282.492 174.076 282.766 173.796 283.09 173.583L294.392 166.152C295.869 164.833 297.811 164.152 299.79 164.259C301.769 164.366 303.625 165.253 304.951 166.725C306.277 168.196 306.964 170.133 306.862 172.109C306.76 174.086 305.878 175.942 304.407 177.27L295.723 187.689C295.475 187.987 295.166 188.227 294.817 188.394C294.467 188.562 294.086 188.652 293.698 188.659C293.311 188.666 292.927 188.589 292.572 188.434C292.217 188.279 291.899 188.05 291.641 187.762L282.563 177.626C282.305 177.338 282.112 176.997 281.997 176.627C281.883 176.258 281.849 175.868 281.899 175.484Z" fill="#E4E4E4"/>
<path d="M316.395 155.729C323.988 155.729 330.144 149.583 330.144 142.002C330.144 134.42 323.988 128.274 316.395 128.274C308.802 128.274 302.647 134.42 302.647 142.002C302.647 149.583 308.802 155.729 316.395 155.729Z" fill="#9E616A"/>
<path d="M330.461 140.05C326.119 139.702 322.514 135.371 322.966 131.046C323.017 132.829 322.41 134.568 321.26 135.933C320.11 137.298 318.498 138.194 316.73 138.449C314.738 138.668 312.555 138.066 310.821 139.07C308.901 140.181 308.287 142.879 306.287 143.839C304.354 144.766 301.899 143.501 300.945 141.584C299.99 139.668 300.224 137.365 300.857 135.319C301.759 132.402 303.402 129.767 305.627 127.672C307.851 125.577 310.58 124.092 313.549 123.362C316.518 122.632 319.626 122.682 322.57 123.506C325.514 124.331 328.194 125.902 330.35 128.067C332.176 129.9 333.625 132.237 333.86 134.812C334.096 137.387 332.899 140.181 330.584 141.337L330.461 140.05Z" fill="#2F2E41"/>
<path d="M213.827 366.593H0.559756C0.411299 366.593 0.268931 366.535 0.163957 366.43C0.0589822 366.325 0 366.183 0 366.035C0 365.886 0.0589822 365.744 0.163957 365.639C0.268931 365.534 0.411299 365.476 0.559756 365.476H213.827C213.975 365.476 214.118 365.534 214.223 365.639C214.328 365.744 214.386 365.886 214.386 366.035C214.386 366.183 214.328 366.325 214.223 366.43C214.118 366.535 213.975 366.593 213.827 366.593Z" fill="#CACACA"/>
</g>
<defs>
<clipPath id="clip0_340_8219">
<rect width="469" height="368" fill="white"/>
</clipPath>
</defs>
</svg>
