<svg width="488" height="387" viewBox="0 0 488 387" fill="none" xmlns="http://www.w3.org/2000/svg">
<path d="M152.379 202.673L157.168 218.852L163.666 212.832L160.246 200.04L152.379 202.673Z" fill="#A1616A"/>
<path d="M88.418 137.959L90.2268 161.056L134.002 162.09L153.176 203.802L163.667 199.665C163.667 199.665 151.729 160.366 146.302 147.956C140.875 135.546 120.254 144.509 120.254 144.509L118.445 141.062L88.418 137.959Z" fill="#2F2E41"/>
<path d="M156.142 216.088C156.142 216.088 156.808 227.357 157.807 228.061C158.806 228.765 166.468 227.357 166.468 227.357C166.468 227.357 168.769 227.898 178.126 225.244C188.645 222.261 176.794 217.849 176.794 217.849C176.794 217.849 169.132 212.567 165.801 210.101C162.47 207.636 160.139 212.919 160.139 212.919C160.805 215.032 156.142 216.088 156.142 216.088Z" fill="#2F2E41"/>
<path d="M438.328 260.239L439.345 300.04L450.201 346.664C450.201 346.664 447.826 354.624 449.522 356.519C451.219 358.414 459.021 361.826 459.021 361.826L452.576 262.514L438.328 260.239Z" fill="#2F2E41"/>
<path d="M463.163 355.079C463.163 355.079 467.505 363.639 461.425 364.417C455.345 365.195 427.262 367.27 428.999 362.86C430.736 358.451 451.871 354.301 451.871 354.301L463.163 355.079Z" fill="#2F2E41"/>
<path d="M477.832 226.496C477.832 226.496 473.317 250.688 470.307 254.782C467.297 258.876 471.812 288.651 471.812 288.651C471.812 288.651 478.585 331.452 475.575 338.151C472.565 344.85 473.317 342.617 473.693 346.339C474.07 350.061 474.822 353.038 473.693 356.388C472.565 359.738 472.565 359.366 472.188 361.226C471.812 363.087 472.188 373.136 472.188 373.136C472.188 373.136 456.01 378.719 453.376 370.531C453.376 370.531 457.139 365.32 456.01 361.226C454.833 357.106 454.201 352.853 454.129 348.572V340.756L436.821 276.741L432.683 253.665C432.683 253.665 433.811 230.218 437.95 227.985C442.089 225.752 477.832 226.496 477.832 226.496Z" fill="#2F2E41"/>
<path d="M472.173 372.27C472.173 372.27 477.659 383.682 469.979 384.719C462.299 385.757 426.825 388.523 429.019 382.644C431.214 376.765 457.911 371.232 457.911 371.232L472.173 372.27Z" fill="#2F2E41"/>
<path d="M464.665 117.266C472.977 117.266 479.715 110.949 479.715 103.156C479.715 95.364 472.977 89.0471 464.665 89.0471C456.353 89.0471 449.615 95.364 449.615 103.156C449.615 110.949 456.353 117.266 464.665 117.266Z" fill="#FEA88F"/>
<path d="M475.952 108.544L475.671 128.488L457.14 128.553C457.14 128.553 461.843 112.94 459.736 109.676C457.63 106.411 475.952 108.544 475.952 108.544Z" fill="#FFAA92"/>
<path d="M447.298 139.896C447.298 139.896 460.753 123.259 471.133 130.283C481.513 137.308 485.357 153.945 485.357 153.945L483.051 200.53C483.051 200.53 477.284 207.185 480.744 211.621C484.204 216.058 486.126 214.949 483.435 218.276C480.744 221.604 477.669 224.192 478.822 225.301C479.975 226.41 477.669 227.149 477.669 227.149L436.919 228.259C436.919 228.259 438.072 226.78 434.612 222.343C431.152 217.906 435.381 211.991 434.612 209.773C433.843 207.554 433.074 210.142 432.69 204.966C432.305 199.79 447.298 139.896 447.298 139.896Z" fill="#6930C3"/>
<path d="M451.496 235.84C451.496 235.84 450.734 245.388 445.017 246.916C442.873 247.489 441.266 246.397 440.093 244.808C438.998 243.285 438.385 241.469 438.331 239.593C438.278 237.717 438.788 235.868 439.794 234.285L441.206 232.021L451.496 235.84Z" fill="#FFAA92"/>
<path d="M486.705 122.361C486.705 122.361 487.083 129.776 486.705 130.889C486.326 132.001 485.948 133.114 486.705 134.226C487.461 135.338 487.083 139.046 486.326 139.417C485.57 139.788 487.84 143.125 487.083 145.35C486.326 147.574 485.57 148.316 485.191 149.058C484.813 149.799 484.203 151.128 484.203 151.128C484.203 151.128 473.084 127.922 464.003 133.484C454.923 139.046 447.734 140.9 447.734 140.9C447.734 140.9 452.653 114.945 486.705 122.361Z" fill="#3F3D56"/>
<path d="M470.751 138.049C470.751 138.049 483.091 139.168 482.32 154.841C481.549 170.513 483.477 195.141 483.477 195.141C483.477 195.141 462.267 226.485 458.796 228.724C455.325 230.963 454.939 230.59 455.325 232.456C455.711 234.322 456.096 235.814 454.554 237.307C453.643 238.194 452.604 238.948 451.469 239.546C451.469 239.546 439.128 235.441 440.285 231.71C441.442 227.978 446.841 222.008 446.841 222.008C446.841 222.008 456.096 207.455 456.482 205.216C456.868 202.977 456.868 203.35 458.025 202.231C459.181 201.111 462.267 196.633 462.267 194.395V187.305L459.033 149.417C458.887 147.873 459.079 146.318 459.598 144.852C460.117 143.386 460.95 142.042 462.044 140.91C463.879 139.052 466.653 137.573 470.751 138.049Z" fill="#6930C3"/>
<path d="M455.199 90.9296C454.176 91.1997 453.099 91.2229 452.065 90.9971C451.03 90.7712 450.071 90.3034 449.273 89.6358C447.739 88.2462 447.224 85.8386 448.315 84.1104C449.258 82.618 451.09 81.8881 452.834 81.3692C456.681 80.2259 460.687 79.6432 464.717 79.641C466.638 79.6404 468.644 79.7966 470.288 80.7444C471.101 81.2134 471.79 81.8575 472.594 82.3407C474.073 83.2292 475.849 83.5244 477.472 84.1416C479.132 84.785 480.628 85.7609 481.858 87.0032C483.088 88.2455 484.025 89.7253 484.603 91.3425C484.975 92.4393 485.208 93.5749 485.296 94.7247C485.561 97.8744 484.978 101.037 483.6 103.911C481.411 108.462 477.245 112.29 476.656 117.266C474.413 115.47 473.755 112.459 472.018 110.211C470.725 108.548 468.879 107.353 466.781 106.821C466.195 106.747 465.644 106.512 465.195 106.145C464.893 105.747 464.721 105.273 464.699 104.782L463.622 97.3895C463.403 95.8849 463.107 94.2407 461.896 93.2536C461.137 92.7146 460.257 92.3505 459.325 92.1897C457.122 91.6673 454.877 91.3183 452.614 91.1462" fill="#2F2E41"/>
<path opacity="0.1" d="M479.715 200.04L459.021 228.258C459.021 228.258 478.076 211.521 479.715 200.04Z" fill="black"/>
<path opacity="0.1" d="M460.718 171.821L460.903 196.013L449.615 213.209L458.85 193.928L460.718 171.821Z" fill="#6930C3"/>
<path d="M333.796 157.534H206.825V154.89H149.252V157.534H21.7576C19.4797 157.534 17.2952 158.448 15.6845 160.076C14.0738 161.703 13.1689 163.91 13.1689 166.211V341.862C13.1689 344.163 14.0738 346.37 15.6845 347.997C17.2952 349.624 19.4797 350.539 21.7576 350.539H333.796C334.924 350.539 336.041 350.314 337.083 349.878C338.125 349.442 339.072 348.803 339.869 347.997C340.667 347.191 341.299 346.235 341.731 345.182C342.163 344.129 342.385 343.001 342.385 341.862V166.211C342.385 165.072 342.162 163.943 341.731 162.891C341.299 161.838 340.667 160.881 339.869 160.076C339.072 159.27 338.125 158.631 337.083 158.195C336.041 157.759 334.924 157.534 333.796 157.534Z" fill="#3F3D56"/>
<path opacity="0.1" d="M331.097 173.703H22.5752V344.895H331.097V173.703Z" fill="black"/>
<path d="M176.836 169.94C178.914 169.94 180.598 168.256 180.598 166.178C180.598 164.1 178.914 162.415 176.836 162.415C174.758 162.415 173.073 164.1 173.073 166.178C173.073 168.256 174.758 169.94 176.836 169.94Z" fill="#0876DD"/>
<path d="M327.333 173.703H26.3359V344.895H327.333V173.703Z" fill="#E6E6E6"/>
<path d="M321.691 184.99H31.9814V335.489H321.691V184.99Z" fill="white"/>
<path d="M133.567 200.04H60.1992V318.558H133.567V200.04Z" fill="#E6E6E6"/>
<path d="M208.817 200.04H144.855V232.021H208.817V200.04Z" fill="#5378FA"/>
<path d="M208.817 241.427H144.855V277.17H208.817V241.427Z" fill="#FFA100"/>
<path d="M208.817 286.577H144.855V318.557H208.817V286.577Z" fill="#E6E6E6"/>
<path d="M295.355 200.04H220.105V252.714H295.355V200.04Z" fill="#E6E6E6"/>
<path d="M295.355 267.764H220.105V318.558H295.355V267.764Z" fill="#39B54A"/>
<path d="M350.95 343.585H321.064V341.538C321.064 341.485 321.053 341.432 321.031 341.383C321.01 341.334 320.978 341.289 320.939 341.251C320.899 341.214 320.852 341.184 320.8 341.163C320.748 341.143 320.693 341.132 320.637 341.132H310.39C310.334 341.132 310.278 341.143 310.227 341.163C310.175 341.184 310.128 341.214 310.088 341.251C310.048 341.289 310.017 341.334 309.996 341.383C309.974 341.432 309.963 341.485 309.963 341.538V343.585H303.559V341.538C303.559 341.485 303.548 341.432 303.526 341.383C303.505 341.334 303.473 341.289 303.434 341.251C303.394 341.214 303.347 341.184 303.295 341.163C303.243 341.143 303.188 341.132 303.132 341.132H292.885C292.829 341.132 292.774 341.143 292.722 341.163C292.67 341.184 292.623 341.214 292.583 341.251C292.544 341.289 292.512 341.334 292.491 341.383C292.469 341.432 292.458 341.485 292.458 341.538V343.585H286.054V341.538C286.054 341.485 286.043 341.432 286.022 341.383C286 341.334 285.969 341.289 285.929 341.251C285.889 341.214 285.842 341.184 285.79 341.163C285.739 341.143 285.683 341.132 285.627 341.132H275.38C275.324 341.132 275.269 341.143 275.217 341.163C275.165 341.184 275.118 341.214 275.079 341.251C275.039 341.289 275.007 341.334 274.986 341.383C274.965 341.432 274.953 341.485 274.953 341.538V343.585H268.549V341.538C268.549 341.485 268.538 341.432 268.517 341.383C268.495 341.334 268.464 341.289 268.424 341.251C268.385 341.214 268.337 341.184 268.286 341.163C268.234 341.143 268.178 341.132 268.122 341.132H257.876C257.82 341.132 257.764 341.143 257.712 341.163C257.66 341.184 257.613 341.214 257.574 341.251C257.534 341.289 257.503 341.334 257.481 341.383C257.46 341.432 257.449 341.485 257.449 341.538V343.585H251.044V341.538C251.044 341.485 251.033 341.432 251.012 341.383C250.991 341.334 250.959 341.289 250.919 341.251C250.88 341.214 250.833 341.184 250.781 341.163C250.729 341.143 250.674 341.132 250.618 341.132H240.371C240.315 341.132 240.259 341.143 240.207 341.163C240.156 341.184 240.109 341.214 240.069 341.251C240.029 341.289 239.998 341.334 239.976 341.383C239.955 341.432 239.944 341.485 239.944 341.538V343.585H233.54V341.538C233.54 341.485 233.529 341.432 233.507 341.383C233.486 341.334 233.454 341.289 233.415 341.251C233.375 341.214 233.328 341.184 233.276 341.163C233.224 341.143 233.169 341.132 233.113 341.132H222.866C222.81 341.132 222.754 341.143 222.703 341.163C222.651 341.184 222.604 341.214 222.564 341.251C222.524 341.289 222.493 341.334 222.472 341.383C222.45 341.432 222.439 341.485 222.439 341.538V343.585H216.035V341.538C216.035 341.485 216.024 341.432 216.002 341.383C215.981 341.334 215.949 341.289 215.91 341.251C215.87 341.214 215.823 341.184 215.771 341.163C215.719 341.143 215.664 341.132 215.608 341.132H135.342C135.229 341.132 135.12 341.175 135.04 341.251C134.96 341.327 134.915 341.431 134.915 341.538V343.585H128.511V341.538C128.511 341.485 128.5 341.432 128.478 341.383C128.457 341.334 128.425 341.289 128.386 341.251C128.346 341.214 128.299 341.184 128.247 341.163C128.196 341.143 128.14 341.132 128.084 341.132H117.837C117.724 341.132 117.615 341.175 117.535 341.251C117.455 341.327 117.41 341.431 117.41 341.538V343.585H111.006V341.538C111.006 341.485 110.995 341.432 110.974 341.383C110.952 341.334 110.921 341.289 110.881 341.251C110.841 341.214 110.794 341.184 110.743 341.163C110.691 341.143 110.635 341.132 110.579 341.132H100.332C100.219 341.132 100.111 341.175 100.031 341.251C99.9504 341.327 99.9055 341.431 99.9055 341.538V343.585H93.5012V341.538C93.5012 341.485 93.4902 341.432 93.4687 341.383C93.4473 341.334 93.4158 341.289 93.3762 341.251C93.3365 341.214 93.2895 341.184 93.2377 341.163C93.1859 341.143 93.1304 341.132 93.0743 341.132H82.8276C82.7144 341.132 82.6058 341.175 82.5257 341.251C82.4456 341.327 82.4006 341.431 82.4006 341.538V343.585H75.9964V341.538C75.9964 341.485 75.9854 341.432 75.9639 341.383C75.9425 341.334 75.911 341.289 75.8714 341.251C75.8317 341.214 75.7847 341.184 75.7329 341.163C75.6811 341.143 75.6256 341.132 75.5695 341.132H65.3228C65.2096 341.132 65.101 341.175 65.0209 341.251C64.9408 341.327 64.8959 341.431 64.8959 341.538V343.585H58.4917V341.538C58.4917 341.485 58.4806 341.432 58.4592 341.383C58.4377 341.334 58.4063 341.289 58.3666 341.251C58.327 341.214 58.2799 341.184 58.2281 341.163C58.1763 341.143 58.1208 341.132 58.0647 341.132H47.818C47.7048 341.132 47.5962 341.175 47.5161 341.251C47.436 341.327 47.391 341.431 47.391 341.538V343.585H40.9868V341.538C40.9868 341.485 40.9758 341.432 40.9543 341.383C40.9329 341.334 40.9014 341.289 40.8618 341.251C40.8222 341.214 40.7751 341.184 40.7233 341.163C40.6715 341.143 40.616 341.132 40.5599 341.132H30.3132C30.2 341.132 30.0914 341.175 30.0113 341.251C29.9312 341.327 29.8862 341.431 29.8862 341.538V343.585H10.2467C7.52911 343.585 4.92283 344.611 3.00119 346.438C1.07956 348.264 0 350.742 0 353.325V357.729C4.40388e-06 360.313 1.07957 362.79 3.0012 364.617C4.92283 366.443 7.52912 367.47 10.2467 367.47H350.95C353.668 367.47 356.274 366.443 358.195 364.617C360.117 362.79 361.197 360.313 361.197 357.729V353.325C361.197 350.742 360.117 348.265 358.195 346.438C356.274 344.611 353.668 343.585 350.95 343.585Z" fill="#3F3D56"/>
<path d="M75.3177 44.2961C73.3723 46.8388 72.1946 49.8639 71.9181 53.0283C71.5219 56.88 70.369 63.0407 67.0142 66.279C61.9029 71.2126 60.1992 74.9128 60.1992 74.9128L61.903 76.7629C61.903 73.0627 64.1747 72.446 64.1747 72.446L63.6067 76.7629C78.9406 90.9471 113.016 77.9963 113.016 77.9963L111.88 66.8956C114.719 68.1291 115.855 76.7629 115.855 76.7629L120.399 75.5295C120.399 75.5295 112.448 61.962 107.337 49.6279C102.225 37.2938 94.2744 40.3773 94.2744 40.3773C84.9037 35.478 78.7145 40.0214 75.3177 44.2961Z" fill="#2F2E41"/>
<path d="M126.041 49.5413L132.254 15.5995C132.254 15.5995 125.627 2.09208 136.81 0.706704C147.993 -0.678674 140.538 16.9849 140.538 16.9849L136.81 49.5413H126.041Z" fill="#A1616A"/>
<path d="M124.16 212.657C125.766 215.511 126.087 230.14 126.087 230.14L137.329 222.29L134.117 209.446L124.16 212.657Z" fill="#A1616A"/>
<path d="M105.921 136.078C105.921 136.078 90.6444 136.078 82.312 140.986C79.6337 142.564 78.8565 145.41 79.035 148.545C79.5014 156.735 86.1257 163.204 94.2344 163.71L117.725 165.177C114.253 174.994 122.238 213.209 122.238 213.209L134.737 211.456C134.737 211.456 133.001 198.484 133.348 197.783C133.695 197.081 136.82 169.735 134.737 155.361C132.654 140.986 104.185 146.946 104.185 146.946L105.921 136.078Z" fill="#2F2E41"/>
<path d="M124.907 226.098C124.907 226.098 123.891 236.876 124.229 238.363C124.568 239.85 138.451 240.593 150.98 236.505C163.509 232.416 149.287 227.956 149.287 227.956C149.287 227.956 140.822 221.638 138.451 219.408C136.081 217.178 132.695 222.381 132.695 222.381C132.017 225.726 124.907 226.098 124.907 226.098Z" fill="#2F2E41"/>
<path d="M103.08 64.2144C104.198 57.3195 99.516 50.823 92.6211 49.7042C85.7262 48.5853 79.2297 53.2677 78.1109 60.1626C76.992 67.0575 81.6744 73.554 88.5693 74.6729C95.4642 75.7917 101.961 71.1093 103.08 64.2144Z" fill="#A1616A"/>
<path d="M86.2752 72.2588C90.8249 79.0041 85.2252 82.9093 85.2252 82.9093L82.7754 101.37C82.7754 101.37 109.024 103.855 113.574 100.305C118.123 96.755 108.324 85.0394 104.824 83.9744C101.324 82.9093 100.624 68.3536 100.624 68.3536L86.2752 72.2588Z" fill="#A1616A"/>
<path d="M85.6608 81.1364L71.2754 78.9817L69.6348 93.8182C69.6348 93.8182 70.3639 126.982 69.6348 132.917C68.9056 138.851 82.0307 145.484 82.0307 145.484C82.0307 145.484 100.989 144.088 104.635 142.342C108.281 140.597 119.948 144.088 119.948 144.088C121.247 144.157 122.548 143.979 123.776 143.564C125.963 142.866 118.125 93.1201 118.125 93.1201L111.198 77.7599L102.812 80.9017L100.26 92.4219L85.6608 81.1364Z" fill="#FA3E3E"/>
<path d="M116.726 92.8097L131.059 75.0424L141.092 51.0043L127.117 45.7789L121.384 65.6363L111.351 77.4814L110.992 79.5715L116.726 92.8097Z" fill="#FA3E3E"/>
<path d="M73.3672 118.654L107.09 120.031C107.09 120.031 119.658 112.52 122.058 122.256C124.459 131.991 106.513 127.535 106.513 127.535L74.3762 128.191L73.3672 118.654Z" fill="#A1616A"/>
<path d="M76.2076 116.648L92.0007 117.698L94.0607 128.553C94.0607 128.553 74.8342 128.203 67.281 127.853C59.7278 127.503 67.281 94.9379 68.311 85.1335C69.341 75.329 74.4909 78.1303 74.4909 78.1303L77.5809 80.5814L76.2076 116.648Z" fill="#FA3E3E"/>
<path opacity="0.15" d="M77.772 115.099L92.1811 121.028L76.3309 117.693L75.25 96.5721L77.772 115.099Z" fill="black"/>
<path d="M103.468 58.4099L79.9327 58.9474L77.1309 47.66H103.468V58.4099Z" fill="#2F2E41"/>
</svg>
